<svg viewBox="0 0 192 192" xmlns="http://www.w3.org/2000/svg"><g fill="none" fill-rule="evenodd"><rect fill="#ee3643" height="192" rx="8" width="192"/><g fill="#fff" fill-rule="nonzero" transform="translate(18.501447 12.24761)"><path d="m133.427029 47.0430309c-1.295764-1.7238694-3.328693-2.7357555-5.485247-2.7357555h-88.5285887l-5.6661044-16.9067398h-26.87908357c-3.79342828 0-6.86800533 3.0745771-6.86800533 6.8680053 0 3.7934283 3.07457705 6.8680054 6.86800533 6.8680054h16.99602387l30.906024 92.2258647h57.5973818c3.793428 0 6.868006-3.074577 6.868006-6.868005s-3.074578-6.868005-6.868006-6.868005h-47.7143222l-3.9513924-11.787787h52.9294276c3.063131 0 5.755389-2.028351 6.602443-4.972436l14.308344-49.7930385c.595227-2.0741376.180858-4.3062393-1.114906-6.0301086zm-17.813317 22.1630532h-11.011701v-11.162798h14.21906zm-40.3312162 0v-11.162798h15.5835041v11.1605086h-15.5835041zm15.5835041 13.7360106v11.1605087h-15.5835041v-11.1605087zm-29.3195148-24.8988086v11.1605086h-13.7886654l-3.7407735-11.1605086zm-9.1871018 24.8988086h9.1871018v11.1605087h-5.4463282zm52.2426277 11.1605087v-11.1605087h7.064888l-3.207359 11.1605087z"/><circle cx="62.608737" cy="151.319956" r="13.234646"/><circle cx="102.530162" cy="151.319956" r="13.234646"/><path d="m67.024864 22.2129023 17.2776121 12.5730284c2.0924523 1.5224078 4.9770145 1.0095968 6.4513463-1.1309316 1.4789105-2.1428176.9844141-5.1097959-1.0988808-6.6276251l-5.4325922-3.9513924 21.6021656-11.6527157 10.595043 27.504072h9.95174l-13.836741-35.92195722c-.48305-1.25455564-1.465175-2.23896974-2.694548-2.70828343-1.227083-.4693137-2.598395-.38002963-3.761377.24953752l-30.3291119 16.36187803-6.9183707-5.0342479c-1.9963002-1.4514385-4.741213-1.0576728-6.2773568.8928407l-19.4158511 24.7202405c-.3868977.4143697-.6982472.9042874-.9271807 1.4377025h11.689345z"/></g></g></svg>